<svg data-v-fde0c5aa="" xmlns="http://www.w3.org/2000/svg" viewBox="0 0 300 300" class="font"><!----><defs data-v-fde0c5aa=""><!----></defs><rect data-v-fde0c5aa="" fill="transparent" x="0" y="0" width="300px" height="300px" class="logo-background-square"></rect><defs data-v-fde0c5aa=""><linearGradient data-v-fde0c5aa="" gradientTransform="rotate(25)" id="561414e7-808a-4cc0-8ddf-987cd9e29f07" x1="0%" y1="0%" x2="100%" y2="0%"><stop data-v-fde0c5aa="" offset="0%" stop-color="#01648B" stop-opacity="1"></stop><stop data-v-fde0c5aa="" offset="100%" stop-color="#5BD0A4" stop-opacity="1"></stop></linearGradient></defs><g data-v-fde0c5aa="" id="04b82790-065f-4a80-a3b2-1d52fdab55b8" fill="url(#561414e7-808a-4cc0-8ddf-987cd9e29f07)" transform="matrix(3.566796350705255,0,0,3.566796350705255,37.7529183160635,104.80868996443947)"><path d="M5.08 14.55C6.20 14.55 6.89 14.62 6.89 14.62L6.99 13.79L6.02 13.69C6.02 13.69 5.88 12.91 5.88 12.21L5.88 10.47C5.88 8.33 5.24 7.50 3.57 7.50C2.73 7.50 1.88 7.62 1.04 7.84L1.19 9.74L2.00 9.70L2.00 9.13L2.10 8.54C2.45 8.37 2.97 8.26 3.43 8.26C4.31 8.26 4.75 8.89 4.75 10.19L4.75 10.65L2.51 11.03C1.25 11.24 0.63 11.89 0.63 12.89C0.63 13.99 1.41 14.69 2.66 14.69C3.57 14.69 4.52 14.15 4.89 13.44ZM4.75 11.37L4.75 12.21C4.61 13.12 3.82 13.79 2.88 13.79C2.23 13.79 1.86 13.38 1.86 12.68C1.86 12.19 2.18 11.84 2.74 11.75ZM11.62 7.50C10.86 7.50 9.94 8.09 9.65 8.78L9.56 7.88L9.30 7.63L8.79 7.63C8.51 7.63 7.50 7.57 7.50 7.57L7.43 8.32L8.50 8.54C8.50 8.54 8.64 9.32 8.64 9.60L8.64 15.89C8.64 16.21 8.50 16.88 8.50 16.88L7.57 17.11L7.64 17.81C7.64 17.81 8.65 17.74 9.07 17.74C10.19 17.74 11.14 17.81 11.14 17.81L11.24 16.98L9.87 16.88C9.87 16.88 9.77 16.10 9.77 15.40L9.77 14.34C10.28 14.56 10.79 14.69 11.27 14.69C13.13 14.69 14.49 13.12 14.49 10.96C14.49 8.76 13.44 7.50 11.62 7.50ZM11.51 8.36C12.64 8.36 13.23 9.25 13.23 10.99C13.23 12.84 12.50 13.85 11.19 13.85C10.75 13.85 10.26 13.68 9.77 13.34L9.77 10.57C9.77 9.24 10.46 8.36 11.51 8.36ZM18.66 7.50C16.60 7.50 15.61 9.02 15.61 11.12C15.61 13.23 16.72 14.69 18.83 14.69C20.41 14.69 21.31 13.85 21.31 13.85L20.92 13.20C20.92 13.20 20.02 13.78 18.83 13.78C17.57 13.78 16.97 12.49 16.93 11.23L21.11 11.23L21.35 10.77C21.35 8.81 20.62 7.50 18.66 7.50ZM18.61 8.23C19.60 8.23 20.06 9.02 20.06 10.01C20.06 10.08 20.05 10.29 20.05 10.29L16.94 10.53C17.04 9.37 17.46 8.23 18.61 8.23ZM24.35 8.47L25.19 8.37L25.14 7.56C25.14 7.56 24.49 7.63 23.37 7.63C23.09 7.63 22.22 7.59 22.22 7.59L22.15 8.32L22.75 8.46L23.77 9.60L24.86 11.10L23.91 12.46L22.78 13.69L21.91 13.92L21.98 14.62C21.98 14.62 23.06 14.55 23.34 14.55C24.46 14.55 24.92 14.62 24.92 14.62L25.02 13.79L24.14 13.69L24.57 12.94L25.41 11.73L26.28 12.94L26.73 13.71L25.86 13.92L25.93 14.62C25.93 14.62 27.08 14.55 27.36 14.55C28.48 14.55 29.22 14.62 29.22 14.62L29.32 13.79L28.46 13.72L27.23 12.46L26.10 10.93L26.96 9.60L27.92 8.48L28.77 8.37L28.73 7.56C28.73 7.56 28.07 7.63 26.95 7.63C26.67 7.63 25.87 7.59 25.87 7.59L25.80 8.32L26.70 8.48L26.35 9.13L25.58 10.32L24.75 9.13ZM36.64 8.37L36.60 7.56C36.60 7.56 35.99 7.63 34.87 7.63C34.59 7.63 33.70 7.59 33.70 7.59L33.63 8.32L34.68 8.47C34.58 8.92 34.47 9.45 34.40 9.63L33.24 13.10L32.03 9.66C31.96 9.48 31.82 8.95 31.70 8.47L32.54 8.37L32.49 7.56C32.49 7.56 31.79 7.63 30.67 7.63C30.39 7.63 29.43 7.59 29.43 7.59L29.36 8.32L30.21 8.47C30.46 8.93 30.72 9.53 30.79 9.73C30.90 10.04 32.62 14.55 32.62 14.55L33.56 14.55L35.17 10.08C35.25 9.87 35.60 9.04 35.87 8.46ZM39.96 7.50C37.90 7.50 36.90 9.02 36.90 11.12C36.90 13.23 38.01 14.69 40.12 14.69C41.71 14.69 42.60 13.85 42.60 13.85L42.21 13.20C42.21 13.20 41.31 13.78 40.12 13.78C38.86 13.78 38.26 12.49 38.22 11.23L42.41 11.23L42.64 10.77C42.64 8.81 41.92 7.50 39.96 7.50ZM39.90 8.23C40.89 8.23 41.36 9.02 41.36 10.01C41.36 10.08 41.34 10.29 41.34 10.29L38.23 10.53C38.33 9.37 38.75 8.23 39.90 8.23ZM45.67 7.88L45.40 7.63L44.90 7.63C44.62 7.63 43.61 7.57 43.61 7.57L43.54 8.32L44.60 8.54C44.60 8.54 44.74 9.32 44.74 9.60L44.74 12.63C44.74 12.91 44.60 13.69 44.60 13.69L43.54 13.92L43.61 14.62C43.61 14.62 44.88 14.55 45.16 14.55C46.28 14.55 47.25 14.62 47.25 14.62L47.35 13.79L45.98 13.69C45.98 13.69 45.88 12.91 45.88 12.21L45.88 10.57C45.93 9.25 46.47 8.48 47.75 8.47L47.81 8.47C47.91 8.76 48.01 9.09 48.01 9.17L48.01 9.91L48.82 9.95L48.96 7.64C48.96 7.64 48.52 7.50 48.01 7.50C47.00 7.50 46.30 7.91 45.75 8.81ZM55.58 8.39L55.58 7.57L53.87 7.84C53.45 7.63 52.96 7.50 52.40 7.50C50.78 7.50 49.70 8.51 49.70 10.04C49.70 11.05 50.18 11.83 50.96 12.25C50.27 12.82 49.95 13.17 49.95 13.37C49.95 13.86 50.16 14.18 50.67 14.39C49.92 14.98 49.39 15.55 49.39 15.81C49.39 17.14 50.34 17.84 52.16 17.84C54.12 17.84 55.72 16.63 55.72 15.16C55.72 14.49 55.50 14.07 55.09 13.94C54.56 13.78 53.34 13.65 52.39 13.52C51.34 13.40 51.07 13.31 51.07 13.03C51.07 12.95 51.18 12.75 51.45 12.45C51.74 12.53 52.05 12.57 52.40 12.57C54.03 12.57 55.10 11.56 55.10 10.04C55.10 9.34 54.88 8.74 54.46 8.30ZM51.20 14.56C51.46 14.63 51.79 14.69 52.16 14.73L53.98 14.97C54.40 15.02 54.53 15.18 54.53 15.60C54.53 16.45 53.70 17.04 52.56 17.04C51.21 17.04 50.60 16.60 50.60 15.65C50.60 15.39 50.71 15.16 51.20 14.56ZM52.40 8.22C53.40 8.22 53.89 8.82 53.89 10.04C53.89 11.26 53.40 11.86 52.40 11.86C51.41 11.86 50.92 11.26 50.92 10.04C50.92 8.83 51.42 8.22 52.40 8.22ZM59.63 7.50C57.57 7.50 56.57 9.02 56.57 11.12C56.57 13.23 57.68 14.69 59.79 14.69C61.38 14.69 62.27 13.85 62.27 13.85L61.88 13.20C61.88 13.20 60.98 13.78 59.79 13.78C58.53 13.78 57.93 12.49 57.89 11.23L62.08 11.23L62.31 10.77C62.31 8.81 61.59 7.50 59.63 7.50ZM59.57 8.23C60.56 8.23 61.03 9.02 61.03 10.01C61.03 10.08 61.01 10.29 61.01 10.29L57.90 10.53C58.00 9.37 58.42 8.23 59.57 8.23Z"></path></g><!----><!----></svg>